<svg width="68" height="32" viewBox="0 0 68 32" fill="none" xmlns="http://www.w3.org/2000/svg">
<path d="M29.0988 4.98648C28.3275 5.30259 27.6614 5.86457 27.1004 6.67242H26.9251L26.3993 4.49475H22.052V23.6371H27.1004V14.0835C27.1004 12.6434 27.5211 11.4844 28.3626 10.6414C29.204 9.79842 30.3959 9.37693 31.9385 9.37693H33.9369V4.52987H31.5879C30.7115 4.52987 29.8701 4.67037 29.0988 4.98648Z" fill="#FAFAFA"/>
<path d="M13.2872 16.5451C13.0418 17.2475 12.7613 17.8095 12.3406 18.231C11.955 18.6876 11.4642 19.0037 10.9383 19.2145C10.4124 19.4252 9.85146 19.5306 9.29053 19.5306C8.72959 19.5306 8.16865 19.4252 7.64277 19.2145C7.11689 19.0037 6.66113 18.6876 6.24043 18.231C5.85479 17.7744 5.53926 17.2124 5.29385 16.5451C5.04844 15.8426 4.94326 15.0348 4.94326 14.1215C4.94326 13.2083 5.04844 12.3654 5.29385 11.698C5.53926 10.9955 5.81973 10.4336 6.24043 10.0121C6.62607 9.55547 7.11689 9.23935 7.64277 9.02861C8.16865 8.81787 8.72959 8.7125 9.29053 8.7125C9.85146 8.7125 10.4124 8.81787 10.9383 9.02861C11.4642 9.23935 11.9199 9.55547 12.3406 10.0121C12.7263 10.4687 13.0418 11.0307 13.2872 11.698C13.5326 12.4005 13.6378 13.2083 13.6378 14.1215C13.6378 15.0348 13.4976 15.8426 13.2872 16.5451ZM13.8131 6.71045H13.6378C13.3573 6.39434 13.0769 6.07823 12.7263 5.79724C12.3757 5.48113 11.99 5.23526 11.5693 4.98939C11.1486 4.74353 10.6578 4.56791 10.0969 4.42742C9.53594 4.28692 8.93994 4.21667 8.27383 4.21667C7.04678 4.21667 5.9249 4.42742 4.9082 4.8489C3.8915 5.27038 3.01504 5.90261 2.31387 6.74557C1.57764 7.58854 1.0167 8.64225 0.595996 9.87158C0.175293 11.1009 0 12.541 0 14.1567C0 15.8075 0.210352 17.2124 0.595996 18.4417C1.0167 19.6711 1.57764 20.6897 2.31387 21.5326C3.0501 22.3756 3.92656 23.0078 4.9082 23.4293C5.9249 23.8508 7.04678 24.0615 8.27383 24.0615C8.93994 24.0615 9.571 23.9913 10.0969 23.8508C10.6578 23.7103 11.1486 23.4995 11.5693 23.2888C11.99 23.0429 12.3757 22.762 12.7263 22.481C13.0769 22.1648 13.3924 21.8839 13.6378 21.5677H13.8131L14.339 23.7454H18.6512V4.53279H14.339L13.8131 6.71045Z" fill="#FAFAFA"/>
<path d="M42.1434 0H37.726L37.095 4.53095V9.23751V18.0887C37.095 19.88 37.5858 21.2849 38.5674 22.2333C39.5491 23.1816 41.0566 23.6733 43.0199 23.6733H46.6309V18.9668H43.9314C43.3705 18.9668 42.9498 18.7911 42.5992 18.475C42.2836 18.1589 42.1083 17.7023 42.1083 17.1403V9.20239H46.5958V4.53095H42.1083V0H42.1434Z" fill="#FAFAFA"/>
<path d="M62.1197 16.5432C61.8743 17.2457 61.5938 17.8077 61.1731 18.2292C60.7874 18.6858 60.3317 19.0019 59.7708 19.2126C59.2449 19.4234 58.6839 19.5287 58.123 19.5287C57.5621 19.5287 57.0011 19.4234 56.4752 19.2126C55.9494 19.0019 55.4936 18.6858 55.0729 18.2292C54.6873 17.7726 54.3717 17.2106 54.1263 16.5432C53.8809 15.8408 53.7757 15.0329 53.7757 14.1197C53.7757 13.2065 53.8809 12.3635 54.1263 11.6962C54.3717 10.9937 54.6522 10.4317 55.0729 10.0102C55.4585 9.55363 55.9143 9.23751 56.4752 9.02677C57.0011 8.81603 57.5621 8.71066 58.123 8.71066C58.6839 8.71066 59.2449 8.81603 59.7708 9.02677C60.2966 9.23751 60.7524 9.55363 61.1731 10.0102C61.5587 10.4668 61.8743 11.0288 62.1197 11.6962C62.3651 12.3986 62.4703 13.2065 62.4703 14.1197C62.4703 15.0329 62.3651 15.8408 62.1197 16.5432ZM62.4703 0V6.49787H62.295C62.1197 6.28713 61.8743 6.04126 61.5587 5.76027C61.2783 5.47928 60.8926 5.23342 60.4719 4.98755C60.0512 4.74169 59.5253 4.56607 58.9644 4.39045C58.4035 4.24996 57.7724 4.14459 57.0362 4.14459C55.8091 4.14459 54.6873 4.35533 53.6706 4.77681C52.6539 5.1983 51.7774 5.83052 51.0412 6.67349C50.3049 7.51646 49.744 8.57017 49.3233 9.79949C48.9026 11.0288 48.7273 12.4689 48.7273 14.0846C48.7273 15.7354 48.9376 17.1403 49.3233 18.3697C49.744 19.599 50.3049 20.6176 51.0412 21.4605C51.7774 22.3035 52.6539 22.9357 53.6706 23.3572C54.6873 23.7787 55.8091 23.9894 57.0362 23.9894C57.7023 23.9894 58.3333 23.9192 58.8592 23.7787C59.4202 23.6382 59.911 23.4275 60.3317 23.2167C60.7524 22.9709 61.138 22.6899 61.4886 22.4089C61.8392 22.0928 62.1547 21.8118 62.4001 21.4957H62.5754L63.1013 23.6733H67.4135V0H62.4703Z" fill="#FAFAFA"/>
<path d="M55.7417 29.4711C55.7417 30.876 56.8636 32 58.301 32C59.7033 32 60.8252 30.9112 60.8252 29.4711C60.8252 28.0662 59.7384 26.9422 58.301 26.9422C56.8636 26.9773 55.7417 28.0662 55.7417 29.4711Z" fill="#FAFAFA"/>
</svg>
